<svg width="49" height="49" viewBox="0 0 49 49" fill="none" xmlns="http://www.w3.org/2000/svg">
    <circle cx="24.5" cy="24.5" r="24.5" transform="rotate(-180 24.5 24.5)" fill="#006937"/>
    <path d="M15.3746 20.375C15.6246 20.125 15.9206 20 16.2626 20C16.6039 20 16.8996 20.125 17.1496 20.375L24.4746 27.7L31.8246 20.35C32.0579 20.1167 32.3496 20 32.6996 20C33.0496 20 33.3496 20.125 33.5996 20.375C33.8496 20.625 33.9746 20.921 33.9746 21.263C33.9746 21.6043 33.8496 21.9 33.5996 22.15L25.1746 30.55C25.0746 30.65 24.9663 30.721 24.8496 30.763C24.7329 30.8043 24.6079 30.825 24.4746 30.825C24.3413 30.825 24.2163 30.8043 24.0996 30.763C23.9829 30.721 23.8746 30.65 23.7746 30.55L15.3496 22.125C15.1163 21.8917 14.9996 21.6043 14.9996 21.263C14.9996 20.921 15.1246 20.625 15.3746 20.375Z" fill="white"/>
</svg>
